<?xml version="1.0" encoding="UTF-8"?>
<svg width="147px" height="146px" viewBox="0 0 147 146" version="1.1" xmlns="http://www.w3.org/2000/svg" xmlns:xlink="http://www.w3.org/1999/xlink">
    <!-- Generator: Sketch 59.1 (86144) - https://sketch.com -->
    <title>SHUTTER</title>
    <desc>Created with Sketch.</desc>
    <g id="__vectors" stroke="none" stroke-width="1" fill="none" fill-rule="evenodd">
        <g id="4" transform="translate(-11.000000, -9.000000)">
            <g id="SHUTTER">
                <circle id="Oval" stroke="#121F1F" stroke-width="5" cx="84.6674359" cy="81.863135" r="70.3741722"></circle>
                <g id="RIGHT" transform="translate(70.760151, 17.889625)">
                    <path d="M19.4695343,-3.55271368e-15 C28.4179465,0.107841965 37.9582878,3.42505233 48.0905583,9.9516311 C58.2228287,16.4782099 65.339977,24.1861383 69.4420029,33.0754165 L3.55271368e-15,33.0754165 L19.4695343,-3.55271368e-15 Z" id="Triangle" fill="#6CA4C8"></path>
                    <path d="M48.4493872,42.2289878 C58.3057409,42.3317993 68.2935993,45.6469252 78.4129624,52.1743656 C88.5323255,58.701806 95.6387806,66.4132744 99.7323275,75.3087709 L30.3554899,75.3448927 L48.4493872,42.2289878 Z" id="Triangle" fill="#B88A9F" transform="translate(65.043909, 58.786940) rotate(61.000000) translate(-65.043909, -58.786940) "></path>
                    <path d="M27.6012566,89.2625786 C38.2706129,89.9775675 48.2623685,93.3031867 57.5765232,99.2394361 C66.890678,105.175686 73.4237291,112.231974 77.1756764,120.408301 L9.54184949,122.358045 L27.6012566,89.2625786 Z" id="Triangle" fill-opacity="0.75" fill="#121F1F" transform="translate(43.358763, 105.810312) scale(-1, -1) rotate(-59.000000) translate(-43.358763, -105.810312) "></path>
                </g>
                <g id="LEFT" transform="translate(48.962138, 73.336645) scale(-1, -1) translate(-48.962138, -73.336645) translate(0.462138, 0.836645)">
                    <path d="M18.0936505,-5.32907052e-15 C27.9593185,0.107954565 37.9582878,3.4286285 48.0905583,9.96202182 C58.2228287,16.4954151 65.339977,24.2113916 69.4420029,33.1099513 L3.55271368e-15,33.1099513 L18.0936505,-5.32907052e-15 Z" id="Triangle" fill="#6CA4C8"></path>
                    <path d="M48.4349585,42.2912114 C58.2992302,42.3984118 68.2965337,45.7187732 78.4268692,52.2522957 C88.5572047,58.7858182 95.6727498,66.5023254 99.7735047,75.4018173 L30.341271,75.4072325 L48.4349585,42.2912114 Z" id="Triangle" fill="#B88A9F" transform="translate(65.057388, 58.849222) rotate(61.000000) translate(-65.057388, -58.849222) "></path>
                    <path d="M26.2728267,90.0963141 C36.1371704,90.2050842 46.1350582,93.5270188 56.2664901,100.062118 C66.397922,106.597217 73.5147351,114.314814 77.6169294,123.214909 L8.18430974,123.209271 L26.2728267,90.0963141 Z" id="Triangle" fill-opacity="0.48" fill="#B88A9F" transform="translate(42.900620, 106.655612) scale(-1, -1) rotate(-59.000000) translate(-42.900620, -106.655612) "></path>
                </g>
            </g>
        </g>
    </g>
</svg>