<?xml version="1.0" encoding="UTF-8"?>
<svg width="147px" height="147px" viewBox="0 0 147 147" version="1.1" xmlns="http://www.w3.org/2000/svg" xmlns:xlink="http://www.w3.org/1999/xlink">
    <!-- Generator: Sketch 59.1 (86144) - https://sketch.com -->
    <title>SHUTTER</title>
    <desc>Created with Sketch.</desc>
    <g id="__vectors" stroke="none" stroke-width="1" fill="none" fill-rule="evenodd">
        <g id="SHUTTER" transform="translate(-11.000000, -8.000000)">
            <circle id="Oval" stroke="#000000" stroke-width="5" cx="84.4396126" cy="81.6401666" r="70.1780822"></circle>
            <g id="RIGHT" transform="translate(70.569750, 17.838797)" fill="#000000">
                <path d="M19.4171456,-3.55271368e-15 C28.3414794,0.107551783 37.8561495,3.41583619 47.9611561,9.92485322 C58.0661626,16.4338703 65.16416,24.1210582 69.2551482,32.9864171 L3.55271368e-15,32.9864171 L19.4171456,-3.55271368e-15 Z" id="Triangle"></path>
                <path d="M48.3190194,42.1153579 C58.1488517,42.2178927 68.1098348,45.5240983 78.2019687,52.0339747 C88.2941025,58.543851 95.3814355,66.2345694 99.4639675,75.1061299 L30.2738093,75.1421545 L48.3190194,42.1153579 Z" id="Triangle" transform="translate(64.868888, 58.628756) rotate(61.000000) translate(-64.868888, -58.628756) "></path>
                <path d="M27.5269871,89.0223906 C38.1676343,89.7354556 48.132504,93.0521262 57.4215962,98.9724024 C66.7106884,104.892679 73.2261603,111.92998 76.968012,120.084306 L9.51617426,122.028803 L27.5269871,89.0223906 Z" id="Triangle" transform="translate(43.242093, 105.525597) scale(-1, -1) rotate(-59.000000) translate(-43.242093, -105.525597) "></path>
            </g>
            <g id="LEFT" transform="translate(48.699887, 72.941537) scale(-1, -1) translate(-48.699887, -72.941537) translate(0.199887, 0.441537)" fill="#000000">
                <path d="M18.0449641,-5.32907052e-15 C27.8840855,0.107664081 37.8561495,3.41940274 47.9611561,9.93521599 C58.0661626,16.4510292 65.16416,24.1462436 69.2551482,33.020859 L3.55271368e-15,33.020859 L18.0449641,-5.32907052e-15 Z" id="Triangle"></path>
                <path d="M48.3046296,42.1774141 C58.1423585,42.284326 68.1127613,45.5957531 78.215838,52.1116951 C88.3189147,58.6276372 95.4153134,66.3233808 99.5050339,75.1989259 L30.2596286,75.2043265 L48.3046296,42.1774141 Z" id="Triangle" transform="translate(64.882331, 58.690870) rotate(61.000000) translate(-64.882331, -58.690870) "></path>
                <path d="M26.2021317,89.8538827 C36.0399324,89.9623602 46.0109178,93.275356 56.1150881,99.7928703 C66.2192583,106.310385 73.3169215,114.007215 77.4080776,122.883362 L8.16228738,122.877739 L26.2021317,89.8538827 Z" id="Triangle" transform="translate(42.785182, 106.368622) scale(-1, -1) rotate(-59.000000) translate(-42.785182, -106.368622) "></path>
            </g>
        </g>
    </g>
</svg>